<?xml version="1.0" encoding="UTF-8" standalone="no"?>
<!DOCTYPE svg PUBLIC "-//W3C//DTD SVG 1.1//EN" "http://www.w3.org/Graphics/SVG/1.1/DTD/svg11.dtd">
<svg xmlns="http://www.w3.org/2000/svg" xmlns:xlink="http://www.w3.org/1999/xlink" version="1.1" width="387.628pt" height="600.401pt" viewBox="0 0 387.628 600.401">
<g enable-background="new">
<g id="Layer-1" data-name="Layer">
</g>
<g id="Layer-1" data-name="Layer">
<clipPath id="cp0">
<path transform="matrix(1,0,0,-1,0,600.401)" d="M 0 600.401 L 387.628 600.401 L 387.628 0 L 0 0 Z "/>
</clipPath>
<g clip-path="url(#cp0)">
<path transform="matrix(1,0,0,-1,381.9334,502.4681)" d="M 0 0 C -8.357 31.379 -12.694 76.474 -17.715 128.689 C -23.029 183.948 -16.103 279.404 -4.712 307.878 C 9.547 343.524 -9.704 371.802 -18.955 385.391 C -19.588 386.32 -20.187 387.199 -20.738 388.028 C -23.687 392.448 -30.304 399.108 -57.039 414.98 C -88.236 433.5 -124.037 443.288 -160.57 443.288 L -215.667 443.288 C -252.201 443.288 -288.001 433.5 -319.199 414.98 C -345.933 399.108 -352.551 392.45 -355.5 388.027 C -356.052 387.198 -356.651 386.319 -357.284 385.389 C -366.535 371.8 -385.784 343.524 -371.525 307.879 C -360.136 279.404 -353.209 183.948 -358.522 128.689 C -363.543 76.476 -367.879 31.383 -376.238 0 C -380.822 -17.211 -388.495 -46.016 -371.069 -68.69 C -355.948 -88.367 -326.052 -97.932 -279.671 -97.933 L -96.567 -97.933 C -50.188 -97.932 -20.291 -88.367 -5.169 -68.69 C 12.256 -46.017 4.584 -17.211 0 0 " fill="#efefef"/>
<path transform="matrix(1,0,0,-1,195.6473,78.4881)" d="M 0 0 C -.153 0 -.289 .027 -.435 .038 C -.644 .015 -.858 0 -1.083 0 " fill="#db0e0f"/>
<path transform="matrix(1,0,0,-1,186.5818,78.38562)" d="M 0 0 L -20.316 0 C -35.522 0 -50.581 -1.894 -65.163 -5.543 L -65.205 -5.307 C -65.205 -5.307 -73.79 -5.714 -74.406 1.841 L -74.406 67.157 C -74.406 71.78 -78.155 75.528 -82.777 75.528 C -87.401 75.528 -91.149 71.78 -91.149 67.157 L -91.149 .011 L -91.215 0 C -91.215 0 -91.707 -13.017 -102.955 -19.097 C -103.861 -19.587 -104.472 -20.065 -104.833 -20.53 C -107.945 -22.141 -111.022 -23.824 -114.043 -25.617 C -138.713 -40.263 -143.338 -45.463 -144.169 -46.709 C -144.753 -47.585 -145.387 -48.517 -146.057 -49.501 C -155.115 -62.807 -168.805 -82.917 -158.342 -109.071 C -144.528 -143.607 -138.845 -243.059 -144.054 -297.231 C -149.156 -350.29 -153.562 -396.113 -162.328 -429.027 C -167.298 -447.683 -171.249 -467.07 -160.49 -481.07 C -149.405 -495.495 -123.777 -502.809 -84.319 -502.81 L 98.784 -502.81 C 138.242 -502.809 163.869 -495.495 174.954 -481.071 C 185.714 -467.07 181.763 -447.683 176.793 -429.027 C 168.027 -396.118 163.621 -350.292 158.52 -297.231 C 153.31 -243.061 158.993 -143.609 172.808 -109.071 C 183.27 -82.915 169.579 -62.805 160.52 -49.499 C 159.851 -48.516 159.218 -47.585 158.633 -46.708 C 157.803 -45.463 153.178 -40.263 128.509 -25.617 C 124.32 -23.13 120.029 -20.84 115.668 -18.705 C 106.124 -12.295 105.68 -.672 105.68 -.672 L 105.613 -.661 L 105.613 66.485 C 105.613 71.108 101.865 74.856 97.242 74.856 C 92.619 74.856 88.871 71.108 88.871 66.485 L 88.871 1.169 C 88.413 -4.449 83.551 -5.663 81.087 -5.916 C 66.052 -2.022 50.496 0 34.781 0 " fill="#db0e0f"/>
<path transform="matrix(1,0,0,-1,0,600.401)" d="M 315.109 144.117 L 76.522 144.117 L 76.522 399.32704 L 315.109 399.32704 Z " fill="#efefef"/>
<path transform="matrix(1,0,0,-1,0,600.401)" d="M 86.486 154.716 L 305.146 154.716 L 305.146 388.727 L 86.486 388.727 Z M 305.982 153.042 L 85.649 153.042 C 85.187 153.042 84.812 153.417 84.812 153.879 L 84.812 389.564 C 84.812 390.026 85.187 390.401 85.649 390.401 L 305.982 390.401 C 306.444 390.401 306.819 390.026 306.819 389.564 L 306.819 153.879 C 306.819 153.417 306.444 153.042 305.982 153.042 "/>
<path transform="matrix(1,0,0,-1,0,600.401)" d="M 86.486 154.716 L 170.70099 154.716 L 170.70099 359.125 L 86.486 359.125 Z M 171.538 153.042 L 85.649 153.042 C 85.187 153.042 84.812 153.417 84.812 153.879 L 84.812 359.962 C 84.812 360.424 85.187 360.799 85.649 360.799 L 171.538 360.799 C 172 360.799 172.375 360.424 172.375 359.962 L 172.375 153.879 C 172.375 153.417 172 153.042 171.538 153.042 "/>
<path transform="matrix(1,0,0,-1,0,600.401)" d="M 86.486 360.799 L 305.146 360.799 L 305.146 388.72703 L 86.486 388.72703 Z M 305.982 359.125 L 85.649 359.125 C 85.187 359.125 84.812 359.5 84.812 359.962 L 84.812 389.564 C 84.812 390.026 85.187 390.401 85.649 390.401 L 305.982 390.401 C 306.444 390.401 306.819 390.026 306.819 389.564 L 306.819 359.962 C 306.819 359.5 306.444 359.125 305.982 359.125 "/>
<path transform="matrix(1,0,0,-1,147.9817,407.5677)" d="M 0 0 C 0 12.012 -11.533 26.546 -16.993 34.101 C -17.548 34.869 -18.468 35.254 -19.389 35.254 C -20.309 35.254 -21.229 34.869 -21.785 34.101 C -27.244 26.546 -38.778 12.012 -38.778 0 C -38.778 -12.013 -30.848 -18.076 -19.389 -18.076 C -7.929 -18.076 0 -12.013 0 0 " fill="#db0e0f"/>
<path transform="matrix(1,0,0,-1,305.9822,353.77369)" d="M 0 0 L -134.444 0 C -134.906 0 -135.281 .375 -135.281 .837 C -135.281 1.299 -134.906 1.674 -134.444 1.674 L 0 1.674 C .462 1.674 .837 1.299 .837 .837 C .837 .375 .462 0 0 0 "/>
<path transform="matrix(1,0,0,-1,305.9822,369.6985)" d="M 0 0 L -134.444 0 C -134.906 0 -135.281 .375 -135.281 .837 C -135.281 1.299 -134.906 1.674 -134.444 1.674 L 0 1.674 C .462 1.674 .837 1.299 .837 .837 C .837 .375 .462 0 0 0 "/>
<path transform="matrix(1,0,0,-1,159.428,269.9437)" d="M 0 0 L -63.997 0 C -64.458 0 -64.833 .375 -64.833 .837 C -64.833 1.299 -64.458 1.674 -63.997 1.674 L 0 1.674 C .462 1.674 .837 1.299 .837 .837 C .837 .375 .462 0 0 0 "/>
<path transform="matrix(1,0,0,-1,159.428,278.9642)" d="M 0 0 L -63.997 0 C -64.458 0 -64.833 .375 -64.833 .837 C -64.833 1.299 -64.458 1.674 -63.997 1.674 L 0 1.674 C .462 1.674 .837 1.299 .837 .837 C .837 .375 .462 0 0 0 "/>
<path transform="matrix(1,0,0,-1,159.428,287.9837)" d="M 0 0 L -63.997 0 C -64.458 0 -64.833 .375 -64.833 .837 C -64.833 1.299 -64.458 1.674 -63.997 1.674 L 0 1.674 C .462 1.674 .837 1.299 .837 .837 C .837 .375 .462 0 0 0 "/>
<path transform="matrix(1,0,0,-1,159.428,297.0042)" d="M 0 0 L -63.997 0 C -64.458 0 -64.833 .375 -64.833 .837 C -64.833 1.299 -64.458 1.674 -63.997 1.674 L 0 1.674 C .462 1.674 .837 1.299 .837 .837 C .837 .375 .462 0 0 0 "/>
<path transform="matrix(1,0,0,-1,159.428,306.0237)" d="M 0 0 L -63.997 0 C -64.458 0 -64.833 .375 -64.833 .837 C -64.833 1.299 -64.458 1.674 -63.997 1.674 L 0 1.674 C .462 1.674 .837 1.299 .837 .837 C .837 .375 .462 0 0 0 "/>
<path transform="matrix(1,0,0,-1,252.9383,386.3069)" d="M 0 0 L -63.998 0 C -64.46 0 -64.835 .375 -64.835 .837 C -64.835 1.299 -64.46 1.674 -63.998 1.674 L 0 1.674 C .462 1.674 .837 1.299 .837 .837 C .837 .375 .462 0 0 0 "/>
<path transform="matrix(1,0,0,-1,252.9383,395.3265)" d="M 0 0 L -63.998 0 C -64.46 0 -64.835 .375 -64.835 .837 C -64.835 1.299 -64.46 1.674 -63.998 1.674 L 0 1.674 C .462 1.674 .837 1.299 .837 .837 C .837 .375 .462 0 0 0 "/>
<path transform="matrix(1,0,0,-1,252.9383,404.347)" d="M 0 0 L -63.998 0 C -64.46 0 -64.835 .375 -64.835 .837 C -64.835 1.299 -64.46 1.674 -63.998 1.674 L 0 1.674 C .462 1.674 .837 1.299 .837 .837 C .837 .375 .462 0 0 0 "/>
<path transform="matrix(1,0,0,-1,252.9383,413.3675)" d="M 0 0 L -63.998 0 C -64.46 0 -64.835 .375 -64.835 .837 C -64.835 1.299 -64.46 1.674 -63.998 1.674 L 0 1.674 C .462 1.674 .837 1.299 .837 .837 C .837 .375 .462 0 0 0 "/>
<path transform="matrix(1,0,0,-1,252.9383,422.387)" d="M 0 0 L -63.998 0 C -64.46 0 -64.835 .375 -64.835 .837 C -64.835 1.299 -64.46 1.674 -63.998 1.674 L 0 1.674 C .462 1.674 .837 1.299 .837 .837 C .837 .375 .462 0 0 0 "/>
<path transform="matrix(1,0,0,-1,268.3123,401.17799)" d="M 0 0 C -.067 0 -.122 -.055 -.122 -.122 L -.122 -4.542 C -.122 -4.608 -.067 -4.663 0 -4.663 L 7.039 -4.663 L 7.039 -11.703 C 7.039 -11.77 7.094 -11.824 7.161 -11.824 L 11.58 -11.824 C 11.647 -11.824 11.702 -11.77 11.702 -11.703 L 11.702 -4.663 L 18.741 -4.663 C 18.809 -4.663 18.863 -4.608 18.863 -4.542 L 18.863 -.122 C 18.863 -.055 18.809 0 18.741 0 L 11.702 0 L 11.702 7.039 C 11.702 7.105 11.647 7.16 11.58 7.16 L 7.161 7.16 C 7.094 7.16 7.039 7.105 7.039 7.039 L 7.039 0 Z M 11.58 -13.498 L 7.161 -13.498 C 6.171 -13.498 5.365 -12.693 5.365 -11.703 L 5.365 -6.337 L 0 -6.337 C -.99 -6.337 -1.796 -5.532 -1.796 -4.542 L -1.796 -.122 C -1.796 .868 -.99 1.674 0 1.674 L 5.365 1.674 L 5.365 7.039 C 5.365 8.029 6.171 8.834 7.161 8.834 L 11.58 8.834 C 12.57 8.834 13.376 8.029 13.376 7.039 L 13.376 1.674 L 18.741 1.674 C 19.731 1.674 20.537 .868 20.537 -.122 L 20.537 -4.542 C 20.537 -5.532 19.731 -6.337 18.741 -6.337 L 13.376 -6.337 L 13.376 -11.703 C 13.376 -12.693 12.57 -13.498 11.58 -13.498 " fill="#db0e0f"/>
<path transform="matrix(1,0,0,-1,113.094,70.17999)" d="M 0 0 L -18.58 0 C -22.484 0 -25.678 3.194 -25.678 7.098 L -25.678 62.754 C -25.678 66.658 -22.484 69.852 -18.58 69.852 L 0 69.852 C 3.904 69.852 7.098 66.658 7.098 62.754 L 7.098 7.098 C 7.098 3.194 3.904 0 0 0 " fill="#efefef"/>
<path transform="matrix(1,0,0,-1,115.6663,15.915283)" d="M 0 0 L -24.357 0 C -24.785 0 -25.13 .346 -25.13 .773 C -25.13 1.201 -24.785 1.547 -24.357 1.547 L 0 1.547 C .428 1.547 .773 1.201 .773 .773 C .773 .346 .428 0 0 0 " fill="#c6b9b9"/>
<path transform="matrix(1,0,0,-1,115.6663,23.00232)" d="M 0 0 L -24.357 0 C -24.785 0 -25.13 .346 -25.13 .773 C -25.13 1.201 -24.785 1.547 -24.357 1.547 L 0 1.547 C .428 1.547 .773 1.201 .773 .773 C .773 .346 .428 0 0 0 " fill="#c6b9b9"/>
<path transform="matrix(1,0,0,-1,108.2293,49.769289)" d="M 0 0 L -8.955 0 C -11.113 0 -12.862 -1.749 -12.862 -3.907 L -12.862 -20.411 L 3.908 -20.411 L 3.908 -3.907 C 3.908 -1.749 2.158 0 0 0 " fill="#ed6969"/>
<path transform="matrix(1,0,0,-1,274.534,69.85193)" d="M 0 0 L 18.58 0 C 22.484 0 25.679 3.194 25.679 7.098 L 25.679 62.754 C 25.679 66.658 22.484 69.852 18.58 69.852 L 0 69.852 C -3.903 69.852 -7.098 66.658 -7.098 62.754 L -7.098 7.098 C -7.098 3.194 -3.903 0 0 0 " fill="#efefef"/>
<path transform="matrix(1,0,0,-1,271.9617,15.587219)" d="M 0 0 L 24.357 0 C 24.785 0 25.131 .346 25.131 .773 C 25.131 1.201 24.785 1.547 24.357 1.547 L 0 1.547 C -.428 1.547 -.773 1.201 -.773 .773 C -.773 .346 -.428 0 0 0 " fill="#c6b9b9"/>
<path transform="matrix(1,0,0,-1,271.9617,22.674073)" d="M 0 0 L 24.357 0 C 24.785 0 25.131 .346 25.131 .773 C 25.131 1.201 24.785 1.547 24.357 1.547 L 0 1.547 C -.428 1.547 -.773 1.201 -.773 .773 C -.773 .346 -.428 0 0 0 " fill="#c6b9b9"/>
<path transform="matrix(1,0,0,-1,279.3992,49.441225)" d="M 0 0 L 8.955 0 C 11.112 0 12.862 -1.749 12.862 -3.907 L 12.862 -20.411 L -3.908 -20.411 L -3.908 -3.907 C -3.908 -1.749 -2.158 0 0 0 " fill="#ed6969"/>
</g>
</g>
</g>
</svg>
